<?xml version="1.0" encoding="iso-8859-1"?>
<!-- Generator: Adobe Illustrator 19.0.0, SVG Export Plug-In . SVG Version: 6.00 Build 0)  -->
<svg version="1.1" id="Layer_1" xmlns="http://www.w3.org/2000/svg" xmlns:xlink="http://www.w3.org/1999/xlink" x="0px" y="0px"
	 viewBox="0 0 392.598 392.598" style="enable-background:new 0 0 392.598 392.598;" xml:space="preserve">
<path style="fill:#FFFFFF;" d="M52.687,246.174h44.347v-5.43c0-6.012,4.848-10.925,10.925-10.925h17.261
	c0.453-1.293,1.034-2.65,1.616-3.879l-12.283-12.154c-4.267-3.879-4.267-11.507,0-15.451l23.079-23.079
	c4.267-4.267,11.119-4.267,15.451,0l12.218,12.218c1.228-0.517,2.521-1.099,3.879-1.616v-17.261c0-6.012,4.848-10.925,10.925-10.925
	h32.582c6.012,0,10.925,4.848,10.925,10.925v17.261c1.293,0.453,2.651,1.034,3.879,1.616l12.218-12.218
	c4.267-4.267,11.119-4.267,15.451,0l23.079,23.079c4.202,4.202,4.331,11.119,0,15.451l-12.347,12.154
	c0.517,1.228,1.099,2.521,1.616,3.879h17.261c6.012,0,10.925,4.848,10.925,10.925v5.43h44.347
	c-12.024-51.846-51.588-94.513-104.533-109.059c-4.719-1.293-8.016-5.624-8.016-10.537V21.85h-62.19v104.727
	c0,4.913-3.232,9.18-8.016,10.537C104.275,151.596,64.711,194.263,52.687,246.174z"/>
<path style="fill:#56ACE0;" d="M343.402,267.96h-47.774v5.43c0,6.012-4.848,10.925-10.925,10.925h-17.261
	c-0.453,1.293-1.034,2.65-1.616,3.879l12.218,12.218c4.073,3.879,4.461,10.602,0,15.451l-23.079,23.079
	c-4.073,4.073-11.378,4.073-15.451,0l-12.218-12.218c-1.228,0.517-2.521,1.099-3.879,1.616V345.6
	c0,6.012-4.848,10.925-10.925,10.925h-32.582c-6.012,0-10.925-4.848-10.925-10.925v-17.261c-1.293-0.453-2.651-1.034-3.879-1.616
	l-12.154,12.024c-4.267,4.267-11.119,4.267-15.451,0l-23.079-23.079c-4.202-4.073-4.331-10.925,0-15.451L126.642,288
	c-0.517-1.228-1.099-2.521-1.616-3.879h-17.261c-6.012,0-10.925-4.848-10.925-10.925v-5.43h-47.58
	c-0.323,3.814-0.453,7.564-0.453,11.442c0,33.164,11.313,65.422,31.741,91.41h231.564c20.558-25.988,31.741-58.246,31.741-91.41
	C343.919,275.523,343.661,271.774,343.402,267.96z"/>
<path style="fill:#FFC10D;" d="M143.709,270.61c1.293,4.913,3.232,9.632,5.818,14.093c2.521,4.267,1.875,9.762-1.681,13.317
	l-10.149,10.15l7.628,7.628l10.149-10.15c3.556-3.556,8.986-4.202,13.317-1.681c4.331,2.521,9.115,4.59,14.093,5.818
	c4.784,1.228,8.21,5.56,8.21,10.602v14.287h10.796v-14.287c0-4.913,3.426-9.374,8.21-10.602c4.913-1.293,9.632-3.232,14.093-5.818
	c4.267-2.521,9.762-1.875,13.317,1.681l10.149,10.15l7.628-7.628l-10.02-10.15c-3.556-3.556-4.202-8.986-1.681-13.317
	s4.59-9.115,5.818-13.964c1.228-4.784,5.56-8.21,10.602-8.21h14.287v-10.796h-14.287c-4.913,0-9.374-3.426-10.602-8.21
	c-1.228-4.913-3.232-9.632-5.818-13.964c-2.521-4.267-1.875-9.762,1.681-13.317l10.02-10.15l-7.628-7.628l-10.149,10.15
	c-3.556,3.556-8.986,4.202-13.317,1.681c-4.331-2.521-9.115-4.59-14.093-5.818c-4.784-1.228-8.21-5.56-8.21-10.602v-14.287h-10.796
	v14.287c0,4.913-3.426,9.374-8.21,10.602c-4.913,1.228-9.632,3.232-14.093,5.818c-4.267,2.521-9.762,1.875-13.317-1.681
	l-10.149-10.15l-7.628,7.628l10.149,10.15c3.556,3.556,4.202,8.986,1.681,13.317c-2.521,4.331-4.59,9.115-5.818,13.964
	c-1.228,4.784-5.56,8.21-10.602,8.21H118.82v10.796h14.287C138.085,262.465,142.481,265.826,143.709,270.61z M196.331,218.053
	c21.463,0,39.046,17.455,39.046,39.046c0,21.463-17.455,39.046-39.046,39.046c-21.463,0-39.046-17.455-39.046-39.046
	S174.869,218.053,196.331,218.053z"/>
<path style="fill:#194F82;" d="M249.277,118.497V10.925C249.277,4.913,244.428,0,238.351,0h-84.04
	c-6.012,0-10.925,4.848-10.925,10.925v107.507c-68.913,22.756-116.428,87.725-116.428,160.97c0,40.016,14.222,78.804,40.081,109.317
	c2.069,2.457,5.107,3.879,8.339,3.879H317.22c3.168,0,6.271-1.422,8.339-3.879c25.859-30.513,40.081-69.366,40.081-109.317
	C365.705,206.158,318.19,141.188,249.277,118.497z M157.22,137.051c4.719-1.293,8.016-5.624,8.016-10.537V21.786h62.19v104.727
	c0,4.913,3.232,9.18,8.016,10.537c52.881,14.545,92.509,57.212,104.533,109.059h-44.347v-5.43c0-6.012-4.848-10.925-10.925-10.925
	h-17.261c-0.453-1.293-1.034-2.65-1.616-3.879l12.218-12.218c4.331-4.331,4.202-11.184,0-15.451l-23.079-23.079
	c-4.267-4.267-11.119-4.267-15.451,0l-12.218,12.218c-1.228-0.517-2.521-1.099-3.879-1.616v-17.196
	c0-6.012-4.848-10.925-10.925-10.925h-32.582c-6.012,0-10.925,4.848-10.925,10.925v17.261c-1.293,0.453-2.651,1.034-3.879,1.616
	l-12.218-12.024c-4.267-4.267-11.119-4.267-15.451,0l-23.079,23.079c-4.267,3.943-4.267,11.507,0,15.451l12.218,12.218
	c-0.517,1.228-1.099,2.521-1.616,3.879h-17.261c-6.012,0-10.925,4.848-10.925,10.925v5.43H52.687
	C64.711,194.263,104.275,151.596,157.22,137.051z M244.881,297.956l10.02,10.15l-7.628,7.628l-10.15-10.15
	c-3.556-3.556-8.986-4.202-13.317-1.681c-4.331,2.521-9.115,4.59-14.093,5.818c-4.784,1.228-8.21,5.56-8.21,10.602v14.287h-10.796
	v-14.287c0-4.913-3.426-9.374-8.21-10.602c-4.913-1.293-9.632-3.232-14.093-5.818c-4.267-2.521-9.762-1.875-13.317,1.681
	l-9.891,10.02l-7.628-7.628l10.149-10.15c3.556-3.556,4.202-8.986,1.681-13.317s-4.59-9.05-5.818-14.093
	c-1.228-4.784-5.56-8.21-10.602-8.21h-14.287V251.41h14.287c4.913,0,9.374-3.426,10.602-8.21c1.228-4.913,3.232-9.632,5.818-13.964
	c2.521-4.267,1.875-9.762-1.681-13.317l-10.149-10.15l7.628-7.628l10.15,10.15c3.556,3.556,8.986,4.202,13.317,1.681
	s9.115-4.59,14.093-5.818c4.784-1.228,8.21-5.56,8.21-10.602v-14.287h10.796v14.287c0,4.978,3.426,9.374,8.21,10.602
	c4.913,1.228,9.632,3.232,14.093,5.818c4.267,2.521,9.762,1.875,13.317-1.681l10.15-10.15l7.628,7.628l-10.02,10.15
	c-3.556,3.556-4.202,8.986-1.681,13.317c2.521,4.331,4.59,9.115,5.818,13.964c1.228,4.784,5.56,8.21,10.602,8.21h14.287v10.796
	h-14.287c-4.913,0-9.374,3.426-10.602,8.21c-1.228,4.913-3.232,9.632-5.818,13.964C240.614,288.905,241.325,294.4,244.881,297.956z
	 M312.113,370.812H80.549c-20.558-25.988-31.806-58.246-31.806-91.41c0-3.879,0.129-7.628,0.453-11.442H96.97v5.43
	c0,6.012,4.848,10.925,10.925,10.925h17.261c0.453,1.293,1.034,2.65,1.616,3.879l-12.218,12.218c-4.331,4.461-4.202,11.313,0,15.451
	l23.079,23.079c4.267,4.267,11.119,4.267,15.451,0l12.218-12.218c1.228,0.517,2.521,1.099,3.879,1.616V345.6
	c0,6.012,4.848,10.925,10.925,10.925h32.582c6.012,0,10.925-4.848,10.925-10.925v-17.261c1.293-0.453,2.651-1.034,3.879-1.616
	l12.218,12.218c4.073,4.073,11.378,4.073,15.451,0l23.079-23.079c4.461-4.784,4.073-11.507,0-15.451l-12.283-12.218
	c0.517-1.228,1.099-2.521,1.616-3.879h17.261c6.012,0,10.925-4.848,10.925-10.925v-5.43h47.774
	c0.323,3.814,0.453,7.564,0.453,11.442C343.919,312.566,332.671,344.824,312.113,370.812z"/>
<path style="fill:#FFFFFF;" d="M196.331,239.838c-9.503,0-17.131,7.758-17.131,17.131c0,9.503,7.758,17.131,17.131,17.131
	c9.503,0,17.131-7.758,17.131-17.131C213.463,247.596,205.834,239.838,196.331,239.838z"/>
<path style="fill:#194F82;" d="M196.331,218.053c-21.463,0-39.046,17.455-39.046,39.046c0,21.463,17.455,39.046,39.046,39.046
	c21.463,0,39.046-17.455,39.046-39.046S217.794,218.053,196.331,218.053z M196.331,274.23c-9.503,0-17.131-7.758-17.131-17.131
	c0-9.503,7.758-17.131,17.131-17.131c9.503,0,17.131,7.758,17.131,17.131C213.463,266.473,205.834,274.23,196.331,274.23z"/>
<g>
</g>
<g>
</g>
<g>
</g>
<g>
</g>
<g>
</g>
<g>
</g>
<g>
</g>
<g>
</g>
<g>
</g>
<g>
</g>
<g>
</g>
<g>
</g>
<g>
</g>
<g>
</g>
<g>
</g>
</svg>
