<?xml version="1.0" encoding="UTF-8"?>
<!DOCTYPE svg PUBLIC "-//W3C//DTD SVG 1.1//EN" "http://www.w3.org/Graphics/SVG/1.1/DTD/svg11.dtd">
<!-- Creator: CorelDRAW 2020 (64-Bit) -->
<svg xmlns="http://www.w3.org/2000/svg" xml:space="preserve" width="2.09379in" height="2.09379in" version="1.1" style="shape-rendering:geometricPrecision; text-rendering:geometricPrecision; image-rendering:optimizeQuality; fill-rule:evenodd; clip-rule:evenodd"
viewBox="0 0 576.68 576.68"
 xmlns:xlink="http://www.w3.org/1999/xlink"
 xmlns:xodm="http://www.corel.com/coreldraw/odm/2003">
 <defs>
  <style type="text/css">
   <![CDATA[
    .fil1 {fill:#373435}
    .fil0 {fill:#FFCC29}
   ]]>
  </style>
 </defs>
 <g id="Layer_x0020_1">
  <metadata id="CorelCorpID_0Corel-Layer"/>
  <g id="_1342650087280">
   <path class="fil0" d="M-0 74.12l0 428.44c9.22,19.8 2.6,25.1 25.81,48.31 23.4,23.4 29.98,17.28 48.31,25.81l428.44 0c6.94,-3.23 17.24,-4.64 26.42,-9.25 38.19,-19.19 40.03,-48.38 47.7,-64.87l0 -428.44c-7.61,-16.34 -9.5,-45.69 -47.69,-64.88 -9.15,-4.6 -19.5,-6.02 -26.43,-9.25l-428.44 0c-7.68,3.58 -18.55,5.14 -28.1,10.14 -14.58,7.64 -29.25,22.52 -36.75,37.57 -4.49,9.02 -6.08,19.55 -9.27,26.4z"/>
   <path class="fil1" d="M318.64 102.63c-117.69,-17.94 -210.7,67.87 -222.11,169.16 -4.86,43.17 4.79,84.1 25.74,119.73 7.1,12.08 13.51,19.62 21.06,29.15 12.46,15.73 37.54,33.73 55.05,43.34 6.18,3.39 28.53,14.88 36.24,11.91 6.91,-2.66 5.86,-11.29 5.79,-19.17 -0.07,-8.4 0.11,-17.12 -0.29,-25.48 -62.85,9.88 -61.98,-23.8 -74.33,-39.93 -3.39,-4.43 -4.81,-6.31 -9.82,-9.87 -4.35,-3.09 -9.82,-4.59 -9.09,-11.06 11.61,-6.56 27.4,4.05 34.99,13.67 2.69,3.41 4.41,7.42 7.12,10.63 13.25,15.69 28.65,18.5 51.83,9.63 3.82,-20.47 8.48,-18.96 11.64,-25.86 -48.83,-7.05 -77.78,-24.28 -85.52,-71.88 -8.94,-54.97 18.05,-70.23 17.47,-76.69 -0.39,-4.38 -2.76,-10.06 -3.12,-16.31 -0.84,-14.79 2.49,-21.29 5.48,-33.42 17.74,-1.35 35.54,8.57 47.21,16.02 9.28,5.92 6.2,2.83 24.01,-0.08 20.29,-3.31 39.52,-3.32 59.81,-0.13 17.87,2.81 15.8,6.12 24.26,0.61 11.38,-7.41 29.96,-17.8 47.77,-16.41 2.97,12.29 6.33,18.4 5.49,33.4 -0.34,6.08 -2.82,12.24 -3.12,16.29 -0.25,3.33 4.66,7.66 7.19,11.48 11.5,17.4 14.08,40.86 10.25,65.27 -3.89,24.82 -13.73,39.5 -27.43,51.14 -6.39,5.43 -15.65,10.26 -25.7,13.66 -6.06,2.05 -30.32,6.13 -32.62,7.61 9.54,10.66 12.41,20.3 12.51,36.36 0.33,57.2 -8.16,71.5 30.56,54.07 113.8,-51.21 150.06,-194.78 75.29,-292.6 -24.57,-32.14 -65.42,-65.38 -123.59,-74.25z"/>
  </g>
 </g>
</svg>
