<?xml version="1.0" encoding="UTF-8"?>
<!DOCTYPE svg PUBLIC "-//W3C//DTD SVG 1.1//EN" "http://www.w3.org/Graphics/SVG/1.1/DTD/svg11.dtd">
<!-- Creator: CorelDRAW 2020 (64-Bit) -->
<svg xmlns="http://www.w3.org/2000/svg" xml:space="preserve" width="2.09379in" height="2.09379in" version="1.1" style="shape-rendering:geometricPrecision; text-rendering:geometricPrecision; image-rendering:optimizeQuality; fill-rule:evenodd; clip-rule:evenodd"
viewBox="0 0 722.52 722.52"
 xmlns:xlink="http://www.w3.org/1999/xlink"
 xmlns:xodm="http://www.corel.com/coreldraw/odm/2003">
 <defs>
  <style type="text/css">
   <![CDATA[
    .fil1 {fill:#373435}
    .fil0 {fill:#FFCC29}
   ]]>
  </style>
 </defs>
 <g id="Layer_x0020_1">
  <metadata id="CorelCorpID_0Corel-Layer"/>
  <g id="_1342755578512">
   <path class="fil0" d="M-0 92.87l0 536.78c11.55,24.81 3.26,31.45 32.34,60.53 29.31,29.31 37.56,21.64 60.53,32.34l536.78 0c8.69,-4.05 21.59,-5.81 33.1,-11.6 47.84,-24.04 50.15,-60.62 59.77,-81.27l0 -536.78c-9.53,-20.47 -11.9,-57.24 -59.75,-81.28 -11.46,-5.76 -24.44,-7.54 -33.12,-11.58l-536.78 0c-9.63,4.48 -23.24,6.44 -35.21,12.71 -18.27,9.58 -36.65,28.21 -46.04,47.08 -5.63,11.3 -7.62,24.49 -11.62,33.08z"/>
   <path class="fil1" d="M462.37 224.66c10.18,-11.68 48.35,-45.62 61.49,-52.67 -0.76,24.19 -7.51,23.3 -7.51,38.29 0,48.75 -2.26,100.86 2.33,149.01l25.92 1.12c9.22,-46.04 4.37,-93.71 4.19,-140.54 -0.11,-28.83 -16.87,-37.69 -0.64,-67.22 4.23,-7.7 3.83,-1.97 10.85,-16.37l-230.71 -0.28c-32.82,0.01 -113.1,85.24 -144.13,112.07 -11.61,10.04 -11.53,7.37 -20.64,19.75l92.87 0c10.88,57.85 45.5,86.27 107.52,93.74 2.28,31.37 -9.18,25.11 10.48,54.17 -60.04,11.43 -122.17,26.08 -138.43,76.23 -20.89,64.43 63.89,94.55 125.87,94.55 101.84,0 172.11,-88.3 97.49,-162.18 -24.57,-24.33 -71.62,-46.59 -30.17,-84.35 39.82,-36.28 48.53,-42.21 33.21,-115.33zm-131.03 -26.29c77.73,-31.69 125.54,111.65 65.81,133.63 -74.31,27.35 -130.45,-107.27 -65.81,-133.63zm44.4 350.84c-119.84,8.3 -115.66,-88.88 -11.81,-109.73 91.79,-18.43 129.34,101.59 11.81,109.73z"/>
  </g>
 </g>
</svg>
