<?xml version="1.0" encoding="UTF-8"?>
<!DOCTYPE svg PUBLIC "-//W3C//DTD SVG 1.1//EN" "http://www.w3.org/Graphics/SVG/1.1/DTD/svg11.dtd">
<!-- Creator: CorelDRAW 2020 (64-Bit) -->
<svg xmlns="http://www.w3.org/2000/svg" xml:space="preserve" width="2.09379in" height="2.09379in" version="1.1" style="shape-rendering:geometricPrecision; text-rendering:geometricPrecision; image-rendering:optimizeQuality; fill-rule:evenodd; clip-rule:evenodd"
viewBox="0 0 2833.13 2833.13"
 xmlns:xlink="http://www.w3.org/1999/xlink"
 xmlns:xodm="http://www.corel.com/coreldraw/odm/2003">
 <defs>
  <style type="text/css">
   <![CDATA[
    .fil1 {fill:#373435}
    .fil0 {fill:#FFCC29}
   ]]>
  </style>
 </defs>
 <g id="Layer_x0020_1">
  <metadata id="CorelCorpID_0Corel-Layer"/>
  <g id="_1342752537680">
   <path class="fil0" d="M-0 364.15l0 2104.84c45.29,97.28 12.79,123.34 126.8,237.34 114.94,114.95 147.28,84.87 237.34,126.8l2104.84 0c34.09,-15.87 84.68,-22.8 129.79,-45.47 187.6,-94.25 196.65,-237.69 234.35,-318.68l0 -2104.84c-37.38,-80.29 -46.66,-224.45 -234.3,-318.72 -44.95,-22.59 -95.82,-29.58 -129.85,-45.43l-2104.84 0c-37.74,17.57 -91.14,25.25 -138.05,49.84 -71.65,37.56 -143.7,110.63 -180.54,184.59 -22.07,44.29 -29.86,96.03 -45.55,129.72z"/>
   <g>
    <path class="fil1" d="M1505.18 1245.61l-9.23 -124.68c-74.99,-16.04 -271.67,-28.84 -341.02,4.17 -41.32,36.24 -37.15,1113.35 -2.82,1147.72 57.33,35.93 280.8,40.52 333.29,-4.7 106.55,-142.03 -135.69,-827.17 213.55,-852.5 371.13,-26.92 125.93,722.79 227.05,848.83 29.51,31.6 -12.46,15.11 56.95,27.52l228.19 1.07c114.72,-12.18 77.49,-134.82 77.4,-248.99 -0.26,-341.52 71.57,-855.93 -316.19,-937.76 -300.79,-63.48 -395.6,89.07 -467.16,139.34z"/>
    <path class="fil1" d="M593.78 1215.49l0 979.19c0,124.65 65.01,97.93 278.7,97.93 86.62,0 94.1,-26.87 94.1,-113l0 -964.12c0,-129.85 -34.57,-105.45 -263.58,-105.45 -96.73,0 -109.22,7.6 -109.22,105.45z"/>
    <path class="fil1" d="M695.48 552.71c-310.03,120.38 -111.58,559.18 175.9,439.76 268.04,-111.34 135.63,-560.72 -175.9,-439.76z"/>
   </g>
  </g>
 </g>
</svg>
