<?xml version="1.0" encoding="UTF-8"?>
<!DOCTYPE svg PUBLIC "-//W3C//DTD SVG 1.1//EN" "http://www.w3.org/Graphics/SVG/1.1/DTD/svg11.dtd">
<!-- Creator: CorelDRAW 2020 (64-Bit) -->
<svg xmlns="http://www.w3.org/2000/svg" xml:space="preserve" width="0.391984in" height="0.406126in" version="1.1" style="shape-rendering:geometricPrecision; text-rendering:geometricPrecision; image-rendering:optimizeQuality; fill-rule:evenodd; clip-rule:evenodd"
viewBox="0 0 56.48 58.52"
 xmlns:xlink="http://www.w3.org/1999/xlink"
 xmlns:xodm="http://www.corel.com/coreldraw/odm/2003">
 <defs>
  <style type="text/css">
   <![CDATA[
    .fil0 {fill:#A45E4D;fill-rule:nonzero;fill-opacity:0.400000}
   ]]>
  </style>
 </defs>
 <g id="Layer_x0020_1">
  <metadata id="CorelCorpID_0Corel-Layer"/>
  <path class="fil0" d="M52.84 36.54c2.43,2.43 3.64,5.48 3.64,9.17 0,3.69 -1.21,6.75 -3.64,9.17 -2.43,2.43 -5.39,3.64 -8.88,3.64 -4.08,0 -7.28,-1.94 -9.61,-5.82 -2.33,-3.88 -3.49,-9.22 -3.49,-16.01 0,-11.26 2.09,-20.19 6.26,-26.79 4.17,-6.6 9.56,-9.9 16.16,-9.9l3.2 11.65c-6.02,0 -10.92,2.09 -14.7,6.26 -3.79,4.17 -6.16,10.04 -7.13,17.61 2.91,-1.75 5.92,-2.62 9.03,-2.62 3.69,0 6.74,1.21 9.17,3.64zm-31.3 0c2.52,2.43 3.79,5.48 3.79,9.17 0,3.69 -1.21,6.75 -3.64,9.17 -2.43,2.43 -5.48,3.64 -9.17,3.64 -3.88,0 -6.94,-1.89 -9.17,-5.68 -2.23,-3.79 -3.35,-9.17 -3.35,-16.16 0,-11.26 2.28,-20.19 6.84,-26.79 4.56,-6.6 10.43,-9.9 17.61,-9.9l3.2 11.65c-6.6,0 -11.99,2.09 -16.16,6.26 -4.17,4.17 -6.74,10.04 -7.72,17.61 2.91,-1.75 5.73,-2.62 8.44,-2.62 3.69,0 6.79,1.21 9.32,3.64z"/>
 </g>
</svg>
