<?xml version="1.0" encoding="UTF-8"?>
<!DOCTYPE svg PUBLIC "-//W3C//DTD SVG 1.1//EN" "http://www.w3.org/Graphics/SVG/1.1/DTD/svg11.dtd">
<!-- Creator: CorelDRAW 2020 (64-Bit) -->
<svg xmlns="http://www.w3.org/2000/svg" xml:space="preserve" width="2.09379in" height="2.09379in" version="1.1" style="shape-rendering:geometricPrecision; text-rendering:geometricPrecision; image-rendering:optimizeQuality; fill-rule:evenodd; clip-rule:evenodd"
viewBox="0 0 1462.34 1462.34"
 xmlns:xlink="http://www.w3.org/1999/xlink"
 xmlns:xodm="http://www.corel.com/coreldraw/odm/2003">
 <defs>
  <style type="text/css">
   <![CDATA[
    .fil1 {fill:#373435}
    .fil0 {fill:#FFCC29}
   ]]>
  </style>
 </defs>
 <g id="Layer_x0020_1">
  <metadata id="CorelCorpID_0Corel-Layer"/>
  <g id="_1342645390912">
   <path class="fil0" d="M-0 187.96l0 1086.43c23.38,50.21 6.6,63.66 65.45,122.51 59.33,59.33 76.02,43.81 122.51,65.45l1086.43 0c17.6,-8.19 43.71,-11.77 66.99,-23.47 96.83,-48.65 101.5,-122.69 120.96,-164.49l0 -1086.43c-19.29,-41.44 -24.08,-115.85 -120.93,-164.51 -23.2,-11.66 -49.46,-15.27 -67.02,-23.45l-1086.43 0c-19.48,9.07 -47.04,13.03 -71.26,25.72 -36.98,19.39 -74.17,57.1 -93.19,95.28 -11.39,22.86 -15.41,49.57 -23.51,66.95z"/>
   <path class="fil1" d="M240.61 463.46c6.56,62.52 -5.06,17.71 85.87,52.97 20.74,54.81 30.81,592.14 1.7,671.03 -38.44,12.88 -78.47,7.24 -82.12,50.32 26.69,10.78 288.06,11.45 315.39,0 -0.94,-47.47 3.49,-18.11 -95.88,-44.14 -31.87,-71.79 -17.67,-208.74 -17.75,-298.49 124.63,0.04 67.55,-27.62 240.4,229.39 61.41,91.31 178.93,170.08 252.27,112.52 -3.56,-37.45 -0.82,-19.52 -40.67,-36.1 -20.43,-8.5 -36.04,-18.22 -51.47,-29.97 -33.19,-25.3 -50.18,-51.45 -76.33,-85.09 -35.47,-45.62 -106.31,-143.09 -132.47,-198.43l32.36 -20.35c36.93,-18.45 65.61,-34.75 90.53,-70.77 101.06,-146.07 62.29,-337.67 -223.11,-337.67l-298.73 4.8z"/>
   <path class="fil0" d="M443.7 522.35c4.33,317.42 -44.94,320.52 111.98,306.97 200.45,-17.31 163.82,-210.06 127.39,-256.53 -43.59,-55.61 -145.44,-71.78 -239.37,-50.45z"/>
   <path class="fil1" d="M1221.73 400.35l-143.4 -0.31 1.6 53.59 76.95 1.06c-0.9,69.99 -13.09,119.66 -87.56,119.08 -76.2,-0.59 -84.96,-55.82 -84.63,-126.37 0.33,-71.08 -9.5,-136.27 38.5,-172.15 61.78,-46.18 114.04,16.69 140.29,41.88l44.73 -20.42c-11,-50.05 -33.36,-67.99 -84.38,-83.94 -44.36,-13.87 -102.45,-6.69 -138.48,15.4 -103.01,63.15 -131.94,465.87 123.12,401.2 109.11,-27.67 110.82,-108.08 113.28,-229.02z"/>
  </g>
 </g>
</svg>
