<?xml version="1.0" encoding="UTF-8"?>
<!DOCTYPE svg PUBLIC "-//W3C//DTD SVG 1.1//EN" "http://www.w3.org/Graphics/SVG/1.1/DTD/svg11.dtd">
<!-- Creator: CorelDRAW 2020 (64-Bit) -->
<svg xmlns="http://www.w3.org/2000/svg" xml:space="preserve" width="2.09379in" height="2.09379in" version="1.1" style="shape-rendering:geometricPrecision; text-rendering:geometricPrecision; image-rendering:optimizeQuality; fill-rule:evenodd; clip-rule:evenodd"
viewBox="0 0 359.77 359.77"
 xmlns:xlink="http://www.w3.org/1999/xlink"
 xmlns:xodm="http://www.corel.com/coreldraw/odm/2003">
 <defs>
  <style type="text/css">
   <![CDATA[
    .fil1 {fill:#373435}
    .fil0 {fill:#FFCC29}
   ]]>
  </style>
 </defs>
 <g id="Layer_x0020_1">
  <metadata id="CorelCorpID_0Corel-Layer"/>
  <g id="_1342652764608">
   <path class="fil0" d="M-0 46.24l0 267.29c5.75,12.35 1.62,15.66 16.1,30.14 14.6,14.6 18.7,10.78 30.14,16.1l267.29 0c4.33,-2.02 10.75,-2.89 16.48,-5.77 23.82,-11.97 24.97,-30.18 29.76,-40.47l0 -267.29c-4.75,-10.2 -5.93,-28.5 -29.75,-40.47 -5.71,-2.87 -12.17,-3.76 -16.49,-5.77l-267.29 0c-4.79,2.23 -11.57,3.21 -17.53,6.33 -9.1,4.77 -18.25,14.05 -22.93,23.44 -2.8,5.62 -3.79,12.19 -5.78,16.47z"/>
   <path class="fil1" d="M56.53 147.69c-0.74,14.27 6.21,28.85 13.13,36.17 6.98,7.39 11.58,11.46 21.48,15.48 1.3,0.53 2.6,0.95 4.29,1.43 0.47,0.13 1.89,0.53 2.18,0.66 1.55,0.7 1.02,0.39 1.95,1.32 -9.12,1.17 -14.3,1.98 -23.71,0.3 4.57,19.81 25.08,35.37 46.15,37.78l4.28 0.95c-5.27,5.53 -23.92,14.88 -33.7,17.93 -16.49,5.14 -27.97,5.26 -46.06,4.44 5.78,6.99 35.23,16.64 37.24,18.35 2.3,-0.22 15.01,3.35 19.32,4.11 44.1,7.74 93.69,-4.23 126.19,-32.23 31.66,-27.28 57.22,-66.86 57.17,-129.07 7.45,-5.82 24.22,-20.29 26.83,-28.35l-2.59 0.37c-3.9,4.35 -20.45,6.91 -27.41,8.07 0.83,-1.93 -0.21,-0.32 1.55,-1.85 1.78,-1.56 3.37,-1.95 5.73,-4.4 1.97,-2.05 4.55,-4.3 6.4,-6.62 3.36,-4.22 7.4,-10.96 9.31,-17.25 -2.32,0.57 -6.73,3.27 -9.58,4.65 -6.89,3.34 -13.97,5.69 -21.5,7.52 -5.2,1.27 -5.37,-0.86 -8.9,-3.89 -10.47,-8.97 -25.51,-14.73 -43.75,-12.03 -16.37,2.43 -28.63,12.39 -35.58,21.77 -10.33,13.94 -11.44,25.38 -9.3,45.06 -37.28,-1.75 -65.73,-15.15 -92.1,-36.27 -12.92,-10.35 -16.49,-17.1 -20.93,-20.96 -3.69,3.14 -6.19,13.17 -7.1,19.09 -3.01,19.44 5.86,41.1 19.88,51.32 0.78,0.57 1.25,0.69 2.07,1.51 1.02,1.03 0.56,0.12 0.97,1.52 -4.27,-0.91 -8.53,-1.21 -13,-2.51 -4.26,-1.24 -7.3,-3.16 -10.89,-4.36z"/>
  </g>
 </g>
</svg>
